<mxfile host="app.diagrams.net" modified="2021-09-12T12:29:28.339Z" agent="5.0 (Windows NT 10.0; Win64; x64) AppleWebKit/537.36 (KHTML, like Gecko) Chrome/92.0.4515.107 Safari/537.36" etag="FBMtQiD0KmQPUr-RmZiw" version="15.1.0" type="github" pages="2">
  <diagram id="DzkWra_DpJKsFCelnrSv" name="services">
    <mxGraphModel dx="864" dy="441" grid="1" gridSize="10" guides="1" tooltips="1" connect="1" arrows="1" fold="1" page="1" pageScale="1" pageWidth="1200" pageHeight="1920" math="0" shadow="0">
      <root>
        <mxCell id="0" />
        <mxCell id="1" parent="0" />
        <mxCell id="GEIPI93ygSdPoylm2HZx-14" style="edgeStyle=orthogonalEdgeStyle;curved=1;rounded=0;orthogonalLoop=1;jettySize=auto;html=1;exitX=1;exitY=0.5;exitDx=0;exitDy=0;fontFamily=Verdana;fontSize=15;" parent="1" source="9Uajn7U8KiMclKZ5iVpP-3" edge="1">
          <mxGeometry relative="1" as="geometry">
            <mxPoint x="430" y="120" as="targetPoint" />
          </mxGeometry>
        </mxCell>
        <mxCell id="9Uajn7U8KiMclKZ5iVpP-3" value="&lt;font style=&quot;font-size: 13px&quot;&gt;user&lt;/font&gt;" style="rounded=1;whiteSpace=wrap;html=1;shadow=1;fontFamily=Verdana;fontSize=15;arcSize=50;fillColor=#dae8fc;strokeColor=#6c8ebf;" parent="1" vertex="1">
          <mxGeometry x="330" y="100" width="80" height="40" as="geometry" />
        </mxCell>
        <mxCell id="ywrgCHfuGTQzmiFxJyJx-12" style="edgeStyle=orthogonalEdgeStyle;curved=1;rounded=0;orthogonalLoop=1;jettySize=auto;html=1;exitX=1;exitY=0.5;exitDx=0;exitDy=0;entryX=0;entryY=0.5;entryDx=0;entryDy=0;fontFamily=Verdana;fontSize=15;" edge="1" parent="1" source="9Uajn7U8KiMclKZ5iVpP-4" target="9Uajn7U8KiMclKZ5iVpP-3">
          <mxGeometry relative="1" as="geometry" />
        </mxCell>
        <mxCell id="ywrgCHfuGTQzmiFxJyJx-13" style="edgeStyle=orthogonalEdgeStyle;curved=1;rounded=0;orthogonalLoop=1;jettySize=auto;html=1;exitX=1;exitY=0.5;exitDx=0;exitDy=0;entryX=0;entryY=0.5;entryDx=0;entryDy=0;fontFamily=Verdana;fontSize=15;" edge="1" parent="1" source="9Uajn7U8KiMclKZ5iVpP-4" target="9Uajn7U8KiMclKZ5iVpP-6">
          <mxGeometry relative="1" as="geometry" />
        </mxCell>
        <mxCell id="ywrgCHfuGTQzmiFxJyJx-14" style="edgeStyle=orthogonalEdgeStyle;curved=1;rounded=0;orthogonalLoop=1;jettySize=auto;html=1;exitX=1;exitY=0.5;exitDx=0;exitDy=0;entryX=0;entryY=0.5;entryDx=0;entryDy=0;fontFamily=Verdana;fontSize=15;" edge="1" parent="1" source="9Uajn7U8KiMclKZ5iVpP-4" target="9Uajn7U8KiMclKZ5iVpP-5">
          <mxGeometry relative="1" as="geometry" />
        </mxCell>
        <mxCell id="ywrgCHfuGTQzmiFxJyJx-15" style="edgeStyle=orthogonalEdgeStyle;curved=1;rounded=0;orthogonalLoop=1;jettySize=auto;html=1;exitX=1;exitY=0.5;exitDx=0;exitDy=0;entryX=0;entryY=0.5;entryDx=0;entryDy=0;fontFamily=Verdana;fontSize=15;" edge="1" parent="1" source="9Uajn7U8KiMclKZ5iVpP-4" target="GEIPI93ygSdPoylm2HZx-1">
          <mxGeometry relative="1" as="geometry" />
        </mxCell>
        <mxCell id="ywrgCHfuGTQzmiFxJyJx-16" style="edgeStyle=orthogonalEdgeStyle;curved=1;rounded=0;orthogonalLoop=1;jettySize=auto;html=1;exitX=1;exitY=0.5;exitDx=0;exitDy=0;entryX=0;entryY=0.5;entryDx=0;entryDy=0;fontFamily=Verdana;fontSize=15;" edge="1" parent="1" source="9Uajn7U8KiMclKZ5iVpP-4" target="GEIPI93ygSdPoylm2HZx-2">
          <mxGeometry relative="1" as="geometry" />
        </mxCell>
        <mxCell id="ywrgCHfuGTQzmiFxJyJx-17" style="edgeStyle=orthogonalEdgeStyle;curved=1;rounded=0;orthogonalLoop=1;jettySize=auto;html=1;exitX=1;exitY=0.5;exitDx=0;exitDy=0;entryX=0;entryY=0.5;entryDx=0;entryDy=0;fontFamily=Verdana;fontSize=15;" edge="1" parent="1" source="9Uajn7U8KiMclKZ5iVpP-4" target="GEIPI93ygSdPoylm2HZx-4">
          <mxGeometry relative="1" as="geometry" />
        </mxCell>
        <mxCell id="ywrgCHfuGTQzmiFxJyJx-22" style="edgeStyle=orthogonalEdgeStyle;curved=1;rounded=0;orthogonalLoop=1;jettySize=auto;html=1;exitX=1;exitY=0.5;exitDx=0;exitDy=0;entryX=0;entryY=0.5;entryDx=0;entryDy=0;fontFamily=Verdana;fontSize=15;" edge="1" parent="1" source="9Uajn7U8KiMclKZ5iVpP-4" target="GEIPI93ygSdPoylm2HZx-3">
          <mxGeometry relative="1" as="geometry" />
        </mxCell>
        <mxCell id="9Uajn7U8KiMclKZ5iVpP-4" value="&lt;font style=&quot;font-size: 13px&quot;&gt;services&lt;/font&gt;" style="rounded=1;whiteSpace=wrap;html=1;shadow=1;fontFamily=Verdana;fontSize=15;arcSize=50;fillColor=#fff2cc;strokeColor=#d6b656;" parent="1" vertex="1">
          <mxGeometry x="120" y="229" width="120" height="40" as="geometry" />
        </mxCell>
        <mxCell id="ywrgCHfuGTQzmiFxJyJx-8" style="edgeStyle=orthogonalEdgeStyle;curved=1;rounded=0;orthogonalLoop=1;jettySize=auto;html=1;exitX=1;exitY=0.5;exitDx=0;exitDy=0;fontFamily=Verdana;fontSize=15;" edge="1" parent="1">
          <mxGeometry relative="1" as="geometry">
            <mxPoint x="430" y="220" as="targetPoint" />
            <mxPoint x="410" y="220" as="sourcePoint" />
          </mxGeometry>
        </mxCell>
        <mxCell id="9Uajn7U8KiMclKZ5iVpP-5" value="&lt;font style=&quot;font-size: 13px&quot;&gt;posts&lt;/font&gt;" style="rounded=1;whiteSpace=wrap;html=1;shadow=1;fontFamily=Verdana;fontSize=15;arcSize=50;fillColor=#dae8fc;strokeColor=#6c8ebf;" parent="1" vertex="1">
          <mxGeometry x="330" y="210" width="80" height="40" as="geometry" />
        </mxCell>
        <mxCell id="GEIPI93ygSdPoylm2HZx-15" style="edgeStyle=orthogonalEdgeStyle;curved=1;rounded=0;orthogonalLoop=1;jettySize=auto;html=1;exitX=1;exitY=0.5;exitDx=0;exitDy=0;fontFamily=Verdana;fontSize=15;" parent="1" source="9Uajn7U8KiMclKZ5iVpP-6" edge="1">
          <mxGeometry relative="1" as="geometry">
            <mxPoint x="430" y="169" as="targetPoint" />
          </mxGeometry>
        </mxCell>
        <mxCell id="9Uajn7U8KiMclKZ5iVpP-6" value="&lt;font style=&quot;font-size: 13px&quot;&gt;follow&lt;/font&gt;" style="rounded=1;whiteSpace=wrap;html=1;shadow=1;fontFamily=Verdana;fontSize=15;arcSize=50;fillColor=#dae8fc;strokeColor=#6c8ebf;" parent="1" vertex="1">
          <mxGeometry x="330" y="149" width="80" height="40" as="geometry" />
        </mxCell>
        <mxCell id="ywrgCHfuGTQzmiFxJyJx-9" style="edgeStyle=orthogonalEdgeStyle;curved=1;rounded=0;orthogonalLoop=1;jettySize=auto;html=1;exitX=1;exitY=0.5;exitDx=0;exitDy=0;fontFamily=Verdana;fontSize=15;" edge="1" parent="1" source="GEIPI93ygSdPoylm2HZx-1">
          <mxGeometry relative="1" as="geometry">
            <mxPoint x="430" y="280" as="targetPoint" />
          </mxGeometry>
        </mxCell>
        <mxCell id="GEIPI93ygSdPoylm2HZx-1" value="&lt;span style=&quot;font-size: 13px&quot;&gt;like/com&lt;/span&gt;" style="rounded=1;whiteSpace=wrap;html=1;shadow=1;fontFamily=Verdana;fontSize=15;arcSize=50;fillColor=#dae8fc;strokeColor=#6c8ebf;" parent="1" vertex="1">
          <mxGeometry x="330" y="260" width="80" height="40" as="geometry" />
        </mxCell>
        <mxCell id="ywrgCHfuGTQzmiFxJyJx-10" style="edgeStyle=orthogonalEdgeStyle;curved=1;rounded=0;orthogonalLoop=1;jettySize=auto;html=1;exitX=1;exitY=0.5;exitDx=0;exitDy=0;fontFamily=Verdana;fontSize=15;" edge="1" parent="1" source="GEIPI93ygSdPoylm2HZx-2">
          <mxGeometry relative="1" as="geometry">
            <mxPoint x="440" y="382" as="targetPoint" />
          </mxGeometry>
        </mxCell>
        <mxCell id="GEIPI93ygSdPoylm2HZx-2" value="&lt;font style=&quot;font-size: 13px&quot;&gt;messages&lt;/font&gt;" style="rounded=1;whiteSpace=wrap;html=1;shadow=1;fontFamily=Verdana;fontSize=15;arcSize=50;fillColor=#d5e8d4;strokeColor=#82b366;" parent="1" vertex="1">
          <mxGeometry x="330" y="362" width="80" height="40" as="geometry" />
        </mxCell>
        <mxCell id="ywrgCHfuGTQzmiFxJyJx-19" style="edgeStyle=orthogonalEdgeStyle;curved=1;rounded=0;orthogonalLoop=1;jettySize=auto;html=1;exitX=1;exitY=0.5;exitDx=0;exitDy=0;fontFamily=Verdana;fontSize=15;" edge="1" parent="1" source="GEIPI93ygSdPoylm2HZx-3">
          <mxGeometry relative="1" as="geometry">
            <mxPoint x="430" y="330.20000000000005" as="targetPoint" />
          </mxGeometry>
        </mxCell>
        <mxCell id="GEIPI93ygSdPoylm2HZx-3" value="&lt;span style=&quot;font-size: 13px&quot;&gt;tags&lt;/span&gt;" style="rounded=1;whiteSpace=wrap;html=1;shadow=1;fontFamily=Verdana;fontSize=15;arcSize=50;fillColor=#dae8fc;strokeColor=#6c8ebf;" parent="1" vertex="1">
          <mxGeometry x="330" y="310" width="80" height="40" as="geometry" />
        </mxCell>
        <mxCell id="ywrgCHfuGTQzmiFxJyJx-11" style="edgeStyle=orthogonalEdgeStyle;curved=1;rounded=0;orthogonalLoop=1;jettySize=auto;html=1;exitX=1;exitY=0.5;exitDx=0;exitDy=0;fontFamily=Verdana;fontSize=15;" edge="1" parent="1" source="GEIPI93ygSdPoylm2HZx-4">
          <mxGeometry relative="1" as="geometry">
            <mxPoint x="440" y="457" as="targetPoint" />
          </mxGeometry>
        </mxCell>
        <mxCell id="GEIPI93ygSdPoylm2HZx-4" value="&lt;font style=&quot;font-size: 13px&quot;&gt;notify&lt;/font&gt;" style="rounded=1;whiteSpace=wrap;html=1;shadow=1;fontFamily=Verdana;fontSize=15;arcSize=50;fillColor=#d5e8d4;strokeColor=#82b366;" parent="1" vertex="1">
          <mxGeometry x="330" y="437" width="80" height="40" as="geometry" />
        </mxCell>
        <mxCell id="GEIPI93ygSdPoylm2HZx-5" value="" style="outlineConnect=0;fontColor=#232F3E;gradientColor=none;fillColor=#527FFF;strokeColor=none;dashed=0;verticalLabelPosition=bottom;verticalAlign=top;align=center;html=1;fontSize=12;fontStyle=0;aspect=fixed;pointerEvents=1;shape=mxgraph.aws4.rds_postgresql_instance;rounded=1;fontFamily=Verdana;" parent="1" vertex="1">
          <mxGeometry x="580" y="110" width="58" height="58" as="geometry" />
        </mxCell>
        <mxCell id="GEIPI93ygSdPoylm2HZx-10" style="edgeStyle=orthogonalEdgeStyle;curved=1;rounded=0;orthogonalLoop=1;jettySize=auto;html=1;exitX=1;exitY=0.5;exitDx=0;exitDy=0;fontFamily=Verdana;fontSize=15;" parent="1" source="GEIPI93ygSdPoylm2HZx-6" target="GEIPI93ygSdPoylm2HZx-5" edge="1">
          <mxGeometry relative="1" as="geometry" />
        </mxCell>
        <mxCell id="GEIPI93ygSdPoylm2HZx-6" value="" style="shape=image;verticalLabelPosition=bottom;labelBackgroundColor=#ffffff;verticalAlign=top;aspect=fixed;imageAspect=0;image=https://upload.wikimedia.org/wikipedia/commons/thumb/0/05/Go_Logo_Blue.svg/1280px-Go_Logo_Blue.svg.png;" parent="1" vertex="1">
          <mxGeometry x="440" y="110" width="60" height="22.45" as="geometry" />
        </mxCell>
        <mxCell id="GEIPI93ygSdPoylm2HZx-11" style="edgeStyle=orthogonalEdgeStyle;curved=1;rounded=0;orthogonalLoop=1;jettySize=auto;html=1;exitX=1;exitY=0.5;exitDx=0;exitDy=0;fontFamily=Verdana;fontSize=15;" parent="1" source="GEIPI93ygSdPoylm2HZx-7" target="GEIPI93ygSdPoylm2HZx-5" edge="1">
          <mxGeometry relative="1" as="geometry" />
        </mxCell>
        <mxCell id="GEIPI93ygSdPoylm2HZx-7" value="" style="shape=image;verticalLabelPosition=bottom;labelBackgroundColor=#ffffff;verticalAlign=top;aspect=fixed;imageAspect=0;image=https://upload.wikimedia.org/wikipedia/commons/thumb/0/05/Go_Logo_Blue.svg/1280px-Go_Logo_Blue.svg.png;" parent="1" vertex="1">
          <mxGeometry x="440" y="157.77" width="60" height="22.45" as="geometry" />
        </mxCell>
        <mxCell id="GEIPI93ygSdPoylm2HZx-16" value="" style="outlineConnect=0;fontColor=#232F3E;gradientColor=none;fillColor=#527FFF;strokeColor=none;dashed=0;verticalLabelPosition=bottom;verticalAlign=top;align=center;html=1;fontSize=12;fontStyle=0;aspect=fixed;pointerEvents=1;shape=mxgraph.aws4.rds_postgresql_instance;rounded=1;fontFamily=Verdana;" parent="1" vertex="1">
          <mxGeometry x="580" y="220" width="58" height="58" as="geometry" />
        </mxCell>
        <mxCell id="GEIPI93ygSdPoylm2HZx-17" style="edgeStyle=orthogonalEdgeStyle;curved=1;rounded=0;orthogonalLoop=1;jettySize=auto;html=1;exitX=1;exitY=0.5;exitDx=0;exitDy=0;fontFamily=Verdana;fontSize=15;" parent="1" source="GEIPI93ygSdPoylm2HZx-18" target="GEIPI93ygSdPoylm2HZx-16" edge="1">
          <mxGeometry relative="1" as="geometry" />
        </mxCell>
        <mxCell id="GEIPI93ygSdPoylm2HZx-18" value="" style="shape=image;verticalLabelPosition=bottom;labelBackgroundColor=#ffffff;verticalAlign=top;aspect=fixed;imageAspect=0;image=https://upload.wikimedia.org/wikipedia/commons/thumb/0/05/Go_Logo_Blue.svg/1280px-Go_Logo_Blue.svg.png;" parent="1" vertex="1">
          <mxGeometry x="440" y="210" width="60" height="22.45" as="geometry" />
        </mxCell>
        <mxCell id="GEIPI93ygSdPoylm2HZx-19" style="edgeStyle=orthogonalEdgeStyle;curved=1;rounded=0;orthogonalLoop=1;jettySize=auto;html=1;exitX=1;exitY=0.5;exitDx=0;exitDy=0;fontFamily=Verdana;fontSize=15;" parent="1" source="GEIPI93ygSdPoylm2HZx-20" target="GEIPI93ygSdPoylm2HZx-16" edge="1">
          <mxGeometry relative="1" as="geometry" />
        </mxCell>
        <mxCell id="GEIPI93ygSdPoylm2HZx-20" value="" style="shape=image;verticalLabelPosition=bottom;labelBackgroundColor=#ffffff;verticalAlign=top;aspect=fixed;imageAspect=0;image=https://upload.wikimedia.org/wikipedia/commons/thumb/0/05/Go_Logo_Blue.svg/1280px-Go_Logo_Blue.svg.png;" parent="1" vertex="1">
          <mxGeometry x="440" y="267.77" width="60" height="22.45" as="geometry" />
        </mxCell>
        <mxCell id="ywrgCHfuGTQzmiFxJyJx-2" style="edgeStyle=orthogonalEdgeStyle;curved=1;rounded=0;orthogonalLoop=1;jettySize=auto;html=1;exitX=1;exitY=0.5;exitDx=0;exitDy=0;fontFamily=Verdana;fontSize=15;" edge="1" parent="1" source="GEIPI93ygSdPoylm2HZx-30">
          <mxGeometry relative="1" as="geometry">
            <mxPoint x="560" y="452" as="targetPoint" />
          </mxGeometry>
        </mxCell>
        <mxCell id="GEIPI93ygSdPoylm2HZx-30" value="" style="shape=image;verticalLabelPosition=bottom;verticalAlign=top;imageAspect=0;aspect=fixed;image=data:image/png,iVBORw0KGgoAAAANSUhEUgAAAIAAAAAvCAYAAAArdMLwAAAABGdBTUEAALGPC/xhBQAAACBjSFJNAAB6JgAAgIQAAPoAAACA6AAAdTAAAOpgAAA6mAAAF3CculE8AAAABmJLR0QA/wD/AP+gvaeTAAAACXBIWXMAAC7zAAAu8wHro+ZGAAAAB3RJTUUH5AscDRcAIUU9xwAACtpJREFUeNrtnHtwVPUVxz/n3iUJkKgQQEBQEB8JpdUCsoja7AatjtZWrfVdR2urthQffzhVeTgapzKjDrZalQBVmYJIi/U96igJAxaRJkitCMjw0EIBAQkljyW79/SPcyMh7GZ382gy5X7zVzL3nj2v3+88NxAgQIAAAQIECBAgQIAAAY4iSFcz0B0QjYZR00WhiNaqOvWVFR92NVv/E7hdzUB3wLDhQwHygdkgFwJbhg0fsnvY8CHeli3bupq9TkXgAMCw4ScA9AQmAxcDPwKOATYNHVRYM3zEiWzdur2r2ewUOF3NQDfFIGAK8Iqb1/M6cZycSDTc1Tx1CgIHSA0BzgRmAEO7mpnOQuAA6ZED5HY1E52FwAGOcgQOcJQjcICjHIEDHOUIHOAoR+AARzlCbXmppGQ8jquocgJwGfCVwhtA3dKKle1m6uGqYmpjefTKbTgNiAKrHPFWK45OHf1Zu+lHSsOQq9AgpwHDBJZrByn0gvPH0phwAQqA7wP7QJeCxCs7QDdlVcUAecAlwHnAGtDFqOyP94jz4BmfZ0Uvq2HQ+dFzaCQOQr4oVwC3AhOAeuBVYJbAciBR0QZhH6ouQjwBoR9wHfBz4NvAZmCuwPOKbHOIM2XMhqzpl0TDTQL3B64HfgGcCLwOvAw8AIxq8dpOoBRYm86AkdJxACFUosBtwA+AWmA+MFtDfCIJqFySvW7K/j4SwEF0HDAJuAjYCIwAVgJ/AN4D4tPGZH5IMnaASDQMQgilBLjdFy4vibLmAXNrdlevP7b/GCqXZDZVa+HZt2Env/kN5fmCzgIWAweyEdRv5fb06d8ORDh8FnIAa/rkJJGpVQcoiY6nQUL01MaRPu/XA4UtHtsAzEGZJ8JOD8jktnyoqogQDgl0GOawNwLbMIO/AZyDOcRoXy+z4uKucTXB9Az0k9YBSqJhvIaeuHn1xT4DPwX6pXntU6BcYL6ie/BcKpeuSCHgSBAcUQ37yvsxNplLhQbgTcwRKkjj8ZFoGFQcRMOY4a9IQ78lUjpApHQ8eArCAN8wtwBFrdBKAMuAZ4HXgPpUTvVg1ek4lqIdB1zj834MMAd4XmC7hyJmwubPFNgz+hzIDgSmtRI2UzpApDSM2pC8P2b0W4CRWSiuEaj0hX0TiDUX9qHqItx4Dzw3PtynfRNwQhb0dwMLgDkk9BMcYdrYQ4JGo2E8AVHaSr8JSR3Av1F6AT/EHPc8Mp+u1gKvAM+KyN8Ar6LZTenfhiEsh5gMjME/3aq6RkS0udOnuCW+BJ7y34ulOiSpqwAzfl/fgI+SnfEBegAXAC8AdwoqzSdqooLnxouBF4H722CcfsAdwEJcCTd35W+cVykF/tJG+inhy1Hg6+WPHBlO0qE3Fib+rKo3Jxo8IpEjpo1nA+XYrXEjyGTg4+lj12lLY04fs477x6xFYYvCNOAqLG96ArgWgbJVxUkZSVcFFALjaV+5mA+cp8hM7FZojlOw2NWezaQiIIzlBwCIgjg4nnK5T78zUAhciuUVbcVA4FInl3mgLXVTBOzHbpdtoAB9yqqKxwKr4uruC0niO1gS3hdLxP+JhZgVwDrgfWBio+oLriNJC502lYE+FFgNvAQMwDx6YMqHVTpr/0xI4kCiCHYLpUKjr6CNWN4xqIP52qgJFiAMEYerSJ13pFKLC8TEDItvvdOw3OfqkCT6Ab/zn92O5QFDgLkoDwg0qNBgdFIXuekcINWbtcAzwDOKt0nBdXBeBe7FNmqOpCNKR9XaHYBPsdC2ANgHLAJ+CVzOkZVNtjiAMs/J0dkXPLVfa75wYyseyX9dXO4CSpI8vwMlkcQNkqnLwWxWANwN/AflGhy2qHKswK+BWxHmo6xvhc5hBNuCzVj827S0YhU5PfKbstuZWJZ+BJIe065BDIuTTym6t7JipefzfjeQXRclOTYUjow/PPHR/efHG+St3gO8Fy8ur6lXj0f8z27CfuBJYAaC53pZrxwkgL4IF6KMFrPlXOA+4CsyVHdbQ0AcId70y3vvVhCxzdqDYvV6d4YH7AVYWvERAGrVQgw42G7qysHC4ngvLyE3AIOBwfGYXCbCIuw0xrGGzRMiVKoSq/T5yBCC9SzKgMeB3wJ1QA3wb+Ad0AMgHeYAqa6QrA50twoAnQuJ7ZMGYBNwBnbqN3oedY5LFfAcyCuC7jl40OOD5ava8hm5im4V5DosdxkEHI8lhFNAYsDTmRBqTxKYnVa6SwCwxHACyMpINNwAkBfvTYNbO4Iju3dtEXTo1iW5o0+KHLwrp0Df1ARfi/BuIiZxp5deCboTVCuyO/XN4QGDBXkcWOStGPyYM2F70zF9F+tZFNHJISBbaLcxv8k8BfQsLIve0ODW3oI1T07qAPqDgblLpxYsjtfJzOUffbhh1IBz+fSr5QA7OoC+ALuAj4F7nLO3j0LZ5st1JuYKizl0c7eq+rZWASk5S/WBnRwAJMu/98Yy/vGYMkfSesmYLfqLw2098nVitDQ8r/+oxtkRxu0UhCyHZI6C20IIwaqw+4BPgO9hp74Rq25mYuVtLpYYdkoV8C+U+iSk92It2iMhmoyXfb4w7UEd8EXLP4ackAfsSfPuICxOt2b8GIdn701o8OVNBQFOxSaMfwW5UaFXJDqO0sy+Y/CFz98jCqf7rpzj01VgzxvH1Twpyg3YgOtSFZ2kwtvA8SpMwxpt1T1UVJzkps7WAXZhWeddJEJ1tGguibAOawi9RItyUPyfFliF9emXkX31oMAa4FfA2y11H/MaFZiNTc32Z0m7if4/gPsQvmxBHoRd2PBlPn6zJgVCWFv3aXtWSj0VN4MvmizF+ioTgFdRyoEHfb3uBlg5YjtTx34W89TZi1AjKr1EuRUbb18LzECZgwjTv7s26YekHgYZgyN8RgqxnvozCh8B8WSjzP69b+Jb4bWoSoGYV96JXbOvAVcCjc0HKmVVI7GqyB2E9a/vAE7OwDjbsUbOnxpdNoc8mJ5k4lViMuSJ9eonY7OJTK76bVija4E4PTarFyfZl0V9HeUDF/q8n0P6mcB67Ktn61vbL3i4qhhHRBKqp/i6uxgrU8tRXlbVRjfHxYt7oIQQSrFeRtNYuBxzYK+1aWk6B+gP/AZYAfoOyIFMtlomThzP7toYfXrmDAGuxqz8JOAle7+sqhhRHBWKgZ8BNwN9kpA+ACwEygWpVjSRbicgEgk3RcJCbHvpTmzpQ1qhPwtkNWginbzR6DgSuDh4A4GfYI52apJHE8AHwO9B3wLqM6n/y6qKsTYFxyC4KBMxR57vbzIVYYa/BEsMZ2KHNpbJvkRqB4iMA+smhMShUYD3l2RXunxDQxwnHo8lli1bnVZYLM6VYNffuf7vcaAamCHwtkJ9Nssg4K+BIYLqydiA5WYO7TUcTl+pr6zMbmvHv21EzCCTsI2mPlgo2YyNZl9EZAeeki39smrbm8DTi7Am0AAshDY582MCizz06xxPuPeszPTTjaozX9DVxWi9i+Qm+mKZ+vXAa6ALJcQOTUirCw7p4N9sOcBY4B7gdOy6XOjg7lA8KtrxvwF8+rlY6JsEbAHmInwOeG1ZB/tGN1XFOHh4OAN9vVyNLcWUq8gmUdVsD0a3c4DmwmKXdy+UOqT1WJYNSiLjcEIOmtACLIbvAtJe99nQVxRHnFxUEoh2yELoId0UAbggvRGpE9X41A7STYAAAQIECBAgQIAAAf7f8V/k7r5FAblthwAAACV0RVh0ZGF0ZTpjcmVhdGUAMjAyMC0xMS0yOFQxMzoyMzowMCswMDowMIqoXR4AAAAldEVYdGRhdGU6bW9kaWZ5ADIwMjAtMTEtMjhUMTM6MjM6MDArMDA6MDD79eWiAAAAIHRFWHRzb2Z0d2FyZQBodHRwczovL2ltYWdlbWFnaWNrLm9yZ7zPHZ0AAAAYdEVYdFRodW1iOjpEb2N1bWVudDo6UGFnZXMAMaf/uy8AAAAYdEVYdFRodW1iOjpJbWFnZTo6SGVpZ2h0ADE5MdlUIO8AAAAXdEVYdFRodW1iOjpJbWFnZTo6V2lkdGgANTEyHHwD3AAAABl0RVh0VGh1bWI6Ok1pbWV0eXBlAGltYWdlL3BuZz+yVk4AAAAXdEVYdFRodW1iOjpNVGltZQAxNjA2NTY5NzgwDsz9TQAAABN0RVh0VGh1bWI6OlNpemUAMTA3NjdCQocd8aIAAABSdEVYdFRodW1iOjpVUkkAZmlsZTovLy4vdXBsb2Fkcy81Ni9CT0RDSjlxLzI2OTkvbm9kZWpzX2hvcml6b250YWxfbG9nb19pY29uXzE2ODA3NS5wbmdJQblNAAAAAElFTkSuQmCC;rounded=1;fontFamily=Verdana;fontSize=15;" parent="1" vertex="1">
          <mxGeometry x="446.3" y="437" width="81.7" height="30" as="geometry" />
        </mxCell>
        <mxCell id="ywrgCHfuGTQzmiFxJyJx-6" style="edgeStyle=orthogonalEdgeStyle;curved=1;rounded=0;orthogonalLoop=1;jettySize=auto;html=1;exitX=1;exitY=0.5;exitDx=0;exitDy=0;fontFamily=Verdana;fontSize=15;" edge="1" parent="1" source="GEIPI93ygSdPoylm2HZx-31">
          <mxGeometry relative="1" as="geometry">
            <mxPoint x="570" y="382" as="targetPoint" />
          </mxGeometry>
        </mxCell>
        <mxCell id="GEIPI93ygSdPoylm2HZx-31" value="" style="shape=image;verticalLabelPosition=bottom;verticalAlign=top;imageAspect=0;aspect=fixed;image=data:image/png,iVBORw0KGgoAAAANSUhEUgAAAIAAAAAvCAYAAAArdMLwAAAABGdBTUEAALGPC/xhBQAAACBjSFJNAAB6JgAAgIQAAPoAAACA6AAAdTAAAOpgAAA6mAAAF3CculE8AAAABmJLR0QA/wD/AP+gvaeTAAAACXBIWXMAAC7zAAAu8wHro+ZGAAAAB3RJTUUH5AscDRcAIUU9xwAACtpJREFUeNrtnHtwVPUVxz/n3iUJkKgQQEBQEB8JpdUCsoja7AatjtZWrfVdR2urthQffzhVeTgapzKjDrZalQBVmYJIi/U96igJAxaRJkitCMjw0EIBAQkljyW79/SPcyMh7GZ382gy5X7zVzL3nj2v3+88NxAgQIAAAQIECBAgQIAAAY4iSFcz0B0QjYZR00WhiNaqOvWVFR92NVv/E7hdzUB3wLDhQwHygdkgFwJbhg0fsnvY8CHeli3bupq9TkXgAMCw4ScA9AQmAxcDPwKOATYNHVRYM3zEiWzdur2r2ewUOF3NQDfFIGAK8Iqb1/M6cZycSDTc1Tx1CgIHSA0BzgRmAEO7mpnOQuAA6ZED5HY1E52FwAGOcgQOcJQjcICjHIEDHOUIHOAoR+AARzlCbXmppGQ8jquocgJwGfCVwhtA3dKKle1m6uGqYmpjefTKbTgNiAKrHPFWK45OHf1Zu+lHSsOQq9AgpwHDBJZrByn0gvPH0phwAQqA7wP7QJeCxCs7QDdlVcUAecAlwHnAGtDFqOyP94jz4BmfZ0Uvq2HQ+dFzaCQOQr4oVwC3AhOAeuBVYJbAciBR0QZhH6ouQjwBoR9wHfBz4NvAZmCuwPOKbHOIM2XMhqzpl0TDTQL3B64HfgGcCLwOvAw8AIxq8dpOoBRYm86AkdJxACFUosBtwA+AWmA+MFtDfCIJqFySvW7K/j4SwEF0HDAJuAjYCIwAVgJ/AN4D4tPGZH5IMnaASDQMQgilBLjdFy4vibLmAXNrdlevP7b/GCqXZDZVa+HZt2Env/kN5fmCzgIWAweyEdRv5fb06d8ORDh8FnIAa/rkJJGpVQcoiY6nQUL01MaRPu/XA4UtHtsAzEGZJ8JOD8jktnyoqogQDgl0GOawNwLbMIO/AZyDOcRoXy+z4uKucTXB9Az0k9YBSqJhvIaeuHn1xT4DPwX6pXntU6BcYL6ie/BcKpeuSCHgSBAcUQ37yvsxNplLhQbgTcwRKkjj8ZFoGFQcRMOY4a9IQ78lUjpApHQ8eArCAN8wtwBFrdBKAMuAZ4HXgPpUTvVg1ek4lqIdB1zj834MMAd4XmC7hyJmwubPFNgz+hzIDgSmtRI2UzpApDSM2pC8P2b0W4CRWSiuEaj0hX0TiDUX9qHqItx4Dzw3PtynfRNwQhb0dwMLgDkk9BMcYdrYQ4JGo2E8AVHaSr8JSR3Av1F6AT/EHPc8Mp+u1gKvAM+KyN8Ar6LZTenfhiEsh5gMjME/3aq6RkS0udOnuCW+BJ7y34ulOiSpqwAzfl/fgI+SnfEBegAXAC8AdwoqzSdqooLnxouBF4H722CcfsAdwEJcCTd35W+cVykF/tJG+inhy1Hg6+WPHBlO0qE3Fib+rKo3Jxo8IpEjpo1nA+XYrXEjyGTg4+lj12lLY04fs477x6xFYYvCNOAqLG96ArgWgbJVxUkZSVcFFALjaV+5mA+cp8hM7FZojlOw2NWezaQiIIzlBwCIgjg4nnK5T78zUAhciuUVbcVA4FInl3mgLXVTBOzHbpdtoAB9yqqKxwKr4uruC0niO1gS3hdLxP+JhZgVwDrgfWBio+oLriNJC502lYE+FFgNvAQMwDx6YMqHVTpr/0xI4kCiCHYLpUKjr6CNWN4xqIP52qgJFiAMEYerSJ13pFKLC8TEDItvvdOw3OfqkCT6Ab/zn92O5QFDgLkoDwg0qNBgdFIXuekcINWbtcAzwDOKt0nBdXBeBe7FNmqOpCNKR9XaHYBPsdC2ANgHLAJ+CVzOkZVNtjiAMs/J0dkXPLVfa75wYyseyX9dXO4CSpI8vwMlkcQNkqnLwWxWANwN/AflGhy2qHKswK+BWxHmo6xvhc5hBNuCzVj827S0YhU5PfKbstuZWJZ+BJIe065BDIuTTym6t7JipefzfjeQXRclOTYUjow/PPHR/efHG+St3gO8Fy8ur6lXj0f8z27CfuBJYAaC53pZrxwkgL4IF6KMFrPlXOA+4CsyVHdbQ0AcId70y3vvVhCxzdqDYvV6d4YH7AVYWvERAGrVQgw42G7qysHC4ngvLyE3AIOBwfGYXCbCIuw0xrGGzRMiVKoSq/T5yBCC9SzKgMeB3wJ1QA3wb+Ad0AMgHeYAqa6QrA50twoAnQuJ7ZMGYBNwBnbqN3oedY5LFfAcyCuC7jl40OOD5ava8hm5im4V5DosdxkEHI8lhFNAYsDTmRBqTxKYnVa6SwCwxHACyMpINNwAkBfvTYNbO4Iju3dtEXTo1iW5o0+KHLwrp0Df1ARfi/BuIiZxp5deCboTVCuyO/XN4QGDBXkcWOStGPyYM2F70zF9F+tZFNHJISBbaLcxv8k8BfQsLIve0ODW3oI1T07qAPqDgblLpxYsjtfJzOUffbhh1IBz+fSr5QA7OoC+ALuAj4F7nLO3j0LZ5st1JuYKizl0c7eq+rZWASk5S/WBnRwAJMu/98Yy/vGYMkfSesmYLfqLw2098nVitDQ8r/+oxtkRxu0UhCyHZI6C20IIwaqw+4BPgO9hp74Rq25mYuVtLpYYdkoV8C+U+iSk92It2iMhmoyXfb4w7UEd8EXLP4ackAfsSfPuICxOt2b8GIdn701o8OVNBQFOxSaMfwW5UaFXJDqO0sy+Y/CFz98jCqf7rpzj01VgzxvH1Twpyg3YgOtSFZ2kwtvA8SpMwxpt1T1UVJzkps7WAXZhWeddJEJ1tGguibAOawi9RItyUPyfFliF9emXkX31oMAa4FfA2y11H/MaFZiNTc32Z0m7if4/gPsQvmxBHoRd2PBlPn6zJgVCWFv3aXtWSj0VN4MvmizF+ioTgFdRyoEHfb3uBlg5YjtTx34W89TZi1AjKr1EuRUbb18LzECZgwjTv7s26YekHgYZgyN8RgqxnvozCh8B8WSjzP69b+Jb4bWoSoGYV96JXbOvAVcCjc0HKmVVI7GqyB2E9a/vAE7OwDjbsUbOnxpdNoc8mJ5k4lViMuSJ9eonY7OJTK76bVija4E4PTarFyfZl0V9HeUDF/q8n0P6mcB67Ktn61vbL3i4qhhHRBKqp/i6uxgrU8tRXlbVRjfHxYt7oIQQSrFeRtNYuBxzYK+1aWk6B+gP/AZYAfoOyIFMtlomThzP7toYfXrmDAGuxqz8JOAle7+sqhhRHBWKgZ8BNwN9kpA+ACwEygWpVjSRbicgEgk3RcJCbHvpTmzpQ1qhPwtkNWginbzR6DgSuDh4A4GfYI52apJHE8AHwO9B3wLqM6n/y6qKsTYFxyC4KBMxR57vbzIVYYa/BEsMZ2KHNpbJvkRqB4iMA+smhMShUYD3l2RXunxDQxwnHo8lli1bnVZYLM6VYNffuf7vcaAamCHwtkJ9Nssg4K+BIYLqydiA5WYO7TUcTl+pr6zMbmvHv21EzCCTsI2mPlgo2YyNZl9EZAeeki39smrbm8DTi7Am0AAshDY582MCizz06xxPuPeszPTTjaozX9DVxWi9i+Qm+mKZ+vXAa6ALJcQOTUirCw7p4N9sOcBY4B7gdOy6XOjg7lA8KtrxvwF8+rlY6JsEbAHmInwOeG1ZB/tGN1XFOHh4OAN9vVyNLcWUq8gmUdVsD0a3c4DmwmKXdy+UOqT1WJYNSiLjcEIOmtACLIbvAtJe99nQVxRHnFxUEoh2yELoId0UAbggvRGpE9X41A7STYAAAQIECBAgQIAAAf7f8V/k7r5FAblthwAAACV0RVh0ZGF0ZTpjcmVhdGUAMjAyMC0xMS0yOFQxMzoyMzowMCswMDowMIqoXR4AAAAldEVYdGRhdGU6bW9kaWZ5ADIwMjAtMTEtMjhUMTM6MjM6MDArMDA6MDD79eWiAAAAIHRFWHRzb2Z0d2FyZQBodHRwczovL2ltYWdlbWFnaWNrLm9yZ7zPHZ0AAAAYdEVYdFRodW1iOjpEb2N1bWVudDo6UGFnZXMAMaf/uy8AAAAYdEVYdFRodW1iOjpJbWFnZTo6SGVpZ2h0ADE5MdlUIO8AAAAXdEVYdFRodW1iOjpJbWFnZTo6V2lkdGgANTEyHHwD3AAAABl0RVh0VGh1bWI6Ok1pbWV0eXBlAGltYWdlL3BuZz+yVk4AAAAXdEVYdFRodW1iOjpNVGltZQAxNjA2NTY5NzgwDsz9TQAAABN0RVh0VGh1bWI6OlNpemUAMTA3NjdCQocd8aIAAABSdEVYdFRodW1iOjpVUkkAZmlsZTovLy4vdXBsb2Fkcy81Ni9CT0RDSjlxLzI2OTkvbm9kZWpzX2hvcml6b250YWxfbG9nb19pY29uXzE2ODA3NS5wbmdJQblNAAAAAElFTkSuQmCC;rounded=1;fontFamily=Verdana;fontSize=15;" parent="1" vertex="1">
          <mxGeometry x="446.3" y="367" width="81.7" height="30" as="geometry" />
        </mxCell>
        <mxCell id="ywrgCHfuGTQzmiFxJyJx-1" value="" style="shape=image;verticalLabelPosition=bottom;verticalAlign=top;imageAspect=0;aspect=fixed;image=data:image/png,iVBORw0KGgoAAAANSUhEUgAAAGAAAABgCAYAAADimHc4AAAABGdBTUEAALGPC/xhBQAAAAFzUkdCAK7OHOkAAAAgY0hSTQAAeiYAAICEAAD6AAAAgOgAAHUwAADqYAAAOpgAABdwnLpRPAAAAAZiS0dEAP8A/wD/oL2nkwAAAAlwSFlzAADsOAAA7DgBcSvKOAAAC5BJREFUeNrtnXusHGUZxn/v3Hb3HE6hlFvRtrRFKJIYJJSogKC0PYUWWhCE9CpqA+WiMSEoUQka+MtEYzBBilwUlHKxRQTpoaWtaIrlEkJAQNNaobS2gCK9nsvuvP4xO7uze2avp5lv1pwn2XNmZ2fOfPM83/t87/vNzB4YxShGMYpRjGIURiCmG9Aulj91Rdh+vXPOw6ab0zYs0w1oF+PHdMn+oYHT3z94oHv+I3NMN6dtdKQAVz91GXsG+l1g+eBQ4Tz11XST2kZHCgCwbzB/mm3JPF912b7Boa7ZD/aablJb6DgBlj35JQqqOV/1WkvkKIUZtmWd26kx0DGD8NefmI+KDTBZ4HsiLPCV7O69Bxgs+L8VuArY27e4z3RTW0LHREABC1/1FEXvU/gqkBWCHiRwEXCVikrvA51lRbbpBjSDpb+7BIXjEblT4HwRKcXugaE8BV9tYLogb1uW+9epl0xh6+otppvdFFJtQQuemI/jCwqniPATC5klgoiAVWz6+/sO0p8vhLvsRvUb4sgjmlf6ljxj+hQaItUWZBWgoDoZuBOlV8MOoxAOugKgGr6OBX6kee1VYPavZpk+hcbnaLoBtbBg9Xx8JQt8V9FilqMoZfKBuBieCNwhcJYCvSkXIZUCXLlqHr6qp+hNCgtCxrX0g5IQQpUgwftPKNylyplpT09TJ8CXV83D8wVVFirchJIr9XoNYiCMhgBSsqTQiYrqnArcinL0rF+mNwpSJwAK/fjTgVtQuks9WLWyp2vVYnxXnw3cDGTSKkKqBLjssYspqPYofEfhhDjfL0dCgAZpnABXA9eKipVGEVIjwKWPXowEdrJQYW7gJcN9P7ShYLGBwwfKdaHcrOg5jTY3gdQIgCoF358G+i3Ai3IVtxwVRsq+X/kq42hgGZCbdX+6oiAVAsx/5CJ86FK4WZWTdFjWU+zrVVHRYoe+FFhKXkiTFaVCgGL6MlvhstKq4vrKDKht8gFyKDeqrZ9U3/QJl2FcgItXzqXgi6NwKUpXqY9HSa4gvHIEEKkxDCuRArn4gqnANQL2zPvSEQXGBVAA0bMUeqMZftTrK4bcqD0VFzSe7FpYoHC26fMOYVSAuQ/NwVffVfRrKEdBXNYz3PdL27RnReOAef6gzcx7zUeBUQEC8uRTxYm2Kn+vY0OlsUGbn86tzJDmW27hZJPnHsKYABc+NJe8WAIsVDgmJKkZGxqWllZvWD8lBZgMLLWcvPEoMBcB6mP7hUkaXM2qKKoa2VD4q9bURJO43M87U4ydfxHGBCgS+HmUyeGK4SmnDvP5EZIe2VenotoLMOOe803RYEaA2b+ZgyU+wGcVtSt6c8SGouSHs53Roqwh/7HpkaLBvqJwhaoeYdIIzBxZlYJvHQGcVrE6YkTDfb5OFVyLaBoOB2cUX8ZgMgs6SSHIRKpYbzYbajT2NoFu4FSDHJgRoOjvn0MZG7yPZjeVM511i7JWB4F4pc5B8Wb8YqYJKpIXoPfXF6CoDXwm5KSao1qXIIdlQ7W6emshcSZwQtI8hEhcgCIPY4FpsRlN7KRbvA1FM6VWvSeC8cDpSfMQInkLCkiaoDChmtVa2VAtGzpEbXFQztMCMuPu5G3ISAQoTEUZU7Uusk1zRVlLEtS3pOliBeNR0jCVBU0CnJCXEurYUFxRNlL/j3w8SWHiIYiplpGoADMfmIWIDeikCisp9fDaNhRXlA0bjGMYbHJ66AhgWpJchHCSPJgiqD9kI3KchOxImSip2DZYI1WfKSCqIJW3ZLXceyt3sIGTkuQiRMIWJKDiQtlvS/ZSWhE1/PrZUFOJT/OWNHGHWHxxRbIDcfJjgOCidCvxN1pVclS/KKvYdwTlcBHjP6a+l/Tt4okKUOTEATIVK4cvlt/XKcq0Zd+p27ixFe1KCCayIFvBqSa+7aKsVdSOlC4U71CUF63AiACUBv+qjL+NoiwW7VmSR8JJCUkfMDx/qVquzoYgmvVoMRcKMyDCG6LLWdMIem1k1/CRs0SRsOIKkFdkSGp8KtVvFLS4UkrLimh1gtrEkWM/KH1SABK/ZStZAQLSBhE9ULqvX8okSsi2lOsAKEeJioY38KJSnSnVO25TIdIPDCXKBwYiQJUBgQ9jbUTiram6KIPqoi1cGNEIug8YSJaPhAdhX5V+3x8CdkenGGr35fiiLHxXzpB0pOQDfAAMJskHJCzAxqXPkLMtVdjWTBpamcAML8piw6EZxGdI21HJH9riojFMXZB5i2DQqzm7qXV2rqwLGhys+VR0Kyjrlz+bKB+mpqO3KHwUzfOji60WZYdgGmIA2GqCCFMC/BPYUvcyTCtF2QjrAIXdCn//v78eAEEuc9DZ+yHwYrXXl94Qs57y9YLoZk3cnlX+Wzr8VTzI31B2Jj0NAQYEWL9kDbl8D8CfFPK1zrmWDZV+RQms2jSO7AbkvqhwUBIegMHsjVnPA1ui8//D7g8qfVTHhuJ7dCvYD2wQYP11yQ7AYFaA7cBmaJyGVq7TKlsaIZQ3gFdMkWBEgA1L+oJTh5criq8Wi7JSEdYMamdKG0H+bcL/wfwzYk8Cb7ZVlBWNXqs1ai0lHQQ2ocqG69YZIcC0ANuA0reutlKURQfbNnw/xGvAJpMEGBOgaEMADytsa7UoK61qN3MJ/vijKO+Z4gDMRwB7Hd4CVkD08enmirJSBNRClQ1VPcb6qsJKBWP2A4YF2LCkj548APejvBzlDKgbDRpMbaO+1iaamsNAAbgbeNv0t+YZj4BiI3YBq9qxoQZE18ILwKMAGw32/uK5m8WGJX0hafeDrg3Xaw0bihZlWnzeq2kEoTEErEDVqPeHMC4AQMYChF3ArcDOZosyQYrXhqtQ45mxIvpQXQ2w8XqzvR9SIsDTi4KMaEgHNwE/BoYaFWUKWCo4agVRMJzoOOwAbgc+Om7XbtOnDaREAID1i/vwJANwF/AY1C/KAFwcsrg06fx7gO/7opsBVt7+uulTBlIkAMCzi9dAcHH8Ng2KpAAxRZmiZHDokibuJgx2ukfgAUtFN96Q/KRbLaRKAAiIFXgDuBFlZ3l9lQkp5PA4zMo2no6AzSg/UyWfJvIhhQKsL379vBRYC1wP+m6toqxbMoy1usu3sMTOG/EXYLnCP8TQhFs9pE4AgHWL14Cj6lrOaoJBc3+cDXWTZZzbgy12rTrgFeAahVdUYcM309X7IaUCAKxb1Ede8yjcA/wQOBAlWBC6Jcs473Bylhd3afJd4NvAq6rwXArJhxQLALB20RoEGVL4qcINwI7QhhxsxkiOsV4P4zNHVsyKOuK8lLEzX3lp+2vrSDH5kHIBANYuehoLBtwjh+4l6NHvKUoWlzFWF57jcuJhH8fGCmPgD4peuWvPe89ee/Zi/WOKyYcO+Q8aW1dtYfKFJ+OrvG4Jbyj66WOtw48+xZmA52YY33MMBUv5z8Ce3w/6QzcIbNt845/ZtPJ5001viFT/B41q9D54AVk7x97CvlPnuKf//MTM8WdnMjm6u8bgZDLPvbn3ncU9Tu6dy7+wzHRTm0ZHCRDi8cfvQP3CLY7j/iCb7aK7a0x/NptbmC/kV02fdgZy+PGmm9g0En8k51DAEgHL3mzb9kHbdnK2bW+3bPsFV6yOIh86YBCOg23bWLbzlm27/3IcF8dx3/fczEeO03n9qSMFcBwP27Y/cB13u2M7OI77YS7XPeC4nummtYzOFMB2GRwYPGg77s5iBOzrGXNkwXVGBUgEjpVh4oQpvuu4uxzXw3G9/nFHTfHdTNZ001pGRwpw7vlXgAiO4/3XdT08L1MQEc16iT/oPmJ0pAAAtu3guu5+1/Fw3YylquJ6nRcBnZc2hA13PSzLHnC9DNlMLgdY2WxXYcR/OOnzMN2AdmHbDiLytOdlbstksjb0267jdpwAHVkJh9i3ZweWZYvjeFmxrH5QdT0jX/02ilGMYhSjGMUoOg3/A5AkTyC6FD3sAAAAJXRFWHRkYXRlOmNyZWF0ZQAyMDIwLTAxLTEwVDE2OjM3OjE4KzAwOjAw5UkgwwAAACV0RVh0ZGF0ZTptb2RpZnkAMjAyMC0wMS0xMFQxNjozNzoxOCswMDowMJQUmH8AAABGdEVYdHNvZnR3YXJlAEltYWdlTWFnaWNrIDYuNy44LTkgMjAxOS0wMi0wMSBRMTYgaHR0cDovL3d3dy5pbWFnZW1hZ2ljay5vcmdBe+LIAAAAGHRFWHRUaHVtYjo6RG9jdW1lbnQ6OlBhZ2VzADGn/7svAAAAGHRFWHRUaHVtYjo6SW1hZ2U6OmhlaWdodAA1MTLA0FBRAAAAF3RFWHRUaHVtYjo6SW1hZ2U6OldpZHRoADUxMhx8A9wAAAAZdEVYdFRodW1iOjpNaW1ldHlwZQBpbWFnZS9wbmc/slZOAAAAF3RFWHRUaHVtYjo6TVRpbWUAMTU3ODY3NDIzOM/Box0AAAATdEVYdFRodW1iOjpTaXplADE2LjNLQkJWgYZKAAAAS3RFWHRUaHVtYjo6VVJJAGZpbGU6Ly8uL3VwbG9hZHMvNTYvOGJ2czNhVi8yMTA3L2ZpbGVfdHlwZV9tb25nb19pY29uXzEzMDM4My5wbmdJ7tFfAAAAAElFTkSuQmCC;rounded=1;fontFamily=Verdana;fontSize=15;" vertex="1" parent="1">
          <mxGeometry x="578" y="422" width="60" height="60" as="geometry" />
        </mxCell>
        <mxCell id="ywrgCHfuGTQzmiFxJyJx-5" value="" style="outlineConnect=0;fontColor=#232F3E;gradientColor=none;fillColor=#527FFF;strokeColor=none;dashed=0;verticalLabelPosition=bottom;verticalAlign=top;align=center;html=1;fontSize=12;fontStyle=0;aspect=fixed;pointerEvents=1;shape=mxgraph.aws4.rds_postgresql_instance;rounded=1;fontFamily=Verdana;" vertex="1" parent="1">
          <mxGeometry x="580" y="354" width="58" height="58" as="geometry" />
        </mxCell>
        <mxCell id="ywrgCHfuGTQzmiFxJyJx-21" style="edgeStyle=orthogonalEdgeStyle;curved=1;rounded=0;orthogonalLoop=1;jettySize=auto;html=1;exitX=1;exitY=0.5;exitDx=0;exitDy=0;fontFamily=Verdana;fontSize=15;" edge="1" parent="1" source="ywrgCHfuGTQzmiFxJyJx-18">
          <mxGeometry relative="1" as="geometry">
            <mxPoint x="570" y="250" as="targetPoint" />
            <Array as="points">
              <mxPoint x="550" y="330" />
              <mxPoint x="550" y="250" />
            </Array>
          </mxGeometry>
        </mxCell>
        <mxCell id="ywrgCHfuGTQzmiFxJyJx-18" value="" style="shape=image;verticalLabelPosition=bottom;labelBackgroundColor=#ffffff;verticalAlign=top;aspect=fixed;imageAspect=0;image=https://upload.wikimedia.org/wikipedia/commons/thumb/0/05/Go_Logo_Blue.svg/1280px-Go_Logo_Blue.svg.png;" vertex="1" parent="1">
          <mxGeometry x="440" y="318.78" width="60" height="22.45" as="geometry" />
        </mxCell>
      </root>
    </mxGraphModel>
  </diagram>
  <diagram id="PIALp4Rz168Y1IEBHazI" name="stack">
    <mxGraphModel dx="864" dy="441" grid="1" gridSize="10" guides="1" tooltips="1" connect="1" arrows="1" fold="1" page="1" pageScale="1" pageWidth="1200" pageHeight="1920" math="0" shadow="0">
      <root>
        <mxCell id="1tFxolOckkUxU7xt8ahI-0" />
        <mxCell id="1tFxolOckkUxU7xt8ahI-1" parent="1tFxolOckkUxU7xt8ahI-0" />
        <mxCell id="iaB27rsCiLTruyXVdmIV-2" style="edgeStyle=orthogonalEdgeStyle;curved=1;rounded=0;orthogonalLoop=1;jettySize=auto;html=1;exitX=1;exitY=0.5;exitDx=0;exitDy=0;fontFamily=Verdana;fontSize=15;" edge="1" parent="1tFxolOckkUxU7xt8ahI-1" source="dJtgWLCDLcWylm35o9yi-0" target="iaB27rsCiLTruyXVdmIV-3">
          <mxGeometry relative="1" as="geometry">
            <mxPoint x="420" y="100.16666666666674" as="targetPoint" />
          </mxGeometry>
        </mxCell>
        <mxCell id="8ipYn8Lc4vEtKAmq_haU-2" style="edgeStyle=orthogonalEdgeStyle;curved=1;rounded=0;orthogonalLoop=1;jettySize=auto;html=1;exitX=1;exitY=0.5;exitDx=0;exitDy=0;entryX=0;entryY=0.5;entryDx=0;entryDy=0;fontFamily=Verdana;fontSize=15;" edge="1" parent="1tFxolOckkUxU7xt8ahI-1" source="dJtgWLCDLcWylm35o9yi-0" target="8ipYn8Lc4vEtKAmq_haU-0">
          <mxGeometry relative="1" as="geometry" />
        </mxCell>
        <mxCell id="dJtgWLCDLcWylm35o9yi-0" value="&lt;font style=&quot;font-size: 13px&quot;&gt;user&lt;/font&gt;" style="rounded=1;whiteSpace=wrap;html=1;shadow=1;fontFamily=Verdana;fontSize=15;arcSize=0;fillColor=#dae8fc;strokeColor=#6c8ebf;" vertex="1" parent="1tFxolOckkUxU7xt8ahI-1">
          <mxGeometry x="160" y="80" width="80" height="40" as="geometry" />
        </mxCell>
        <mxCell id="iaB27rsCiLTruyXVdmIV-0" value="" style="endArrow=classic;html=1;fontFamily=Verdana;fontSize=15;" edge="1" parent="1tFxolOckkUxU7xt8ahI-1">
          <mxGeometry width="50" height="50" relative="1" as="geometry">
            <mxPoint x="40" y="100" as="sourcePoint" />
            <mxPoint x="160" y="100" as="targetPoint" />
          </mxGeometry>
        </mxCell>
        <mxCell id="iaB27rsCiLTruyXVdmIV-1" value="POST (create)" style="text;html=1;align=center;verticalAlign=middle;resizable=0;points=[];autosize=1;strokeColor=none;fillColor=none;fontSize=15;fontFamily=Verdana;" vertex="1" parent="1tFxolOckkUxU7xt8ahI-1">
          <mxGeometry x="30" y="80" width="120" height="20" as="geometry" />
        </mxCell>
        <mxCell id="iaB27rsCiLTruyXVdmIV-3" value="" style="shape=image;verticalLabelPosition=bottom;verticalAlign=top;imageAspect=0;aspect=fixed;image=data:image/png,iVBORw0KGgoAAAANSUhEUgAAAIAAAACACAYAAADDPmHLAAAABGdBTUEAALGPC/xhBQAAAAFzUkdCAK7OHOkAAAAgY0hSTQAAeiYAAICEAAD6AAAAgOgAAHUwAADqYAAAOpgAABdwnLpRPAAAAAZiS0dEAP8A/wD/oL2nkwAAAAlwSFlzAAAASAAAAEgARslrPgAADzRJREFUeNrtnXlwXdddxz/n3vtW6Wm3JFuO7cSOncQ0mMQZuzQLaUJIF5pQwgz8QQt0BkoGujAMMJSwpGU6FDoU2ikw2Wg6gZKmTQOkw7Sxh5i2TsrESxJqx3HiPZZkSU96i/Teu8vhj9990rM2q7HeIr3zmbnW1XtP7y7ne35n+32vwWAwGAwGg8FgMBgMBoPBYDAYDKscVe8TqBJ2xRYBnHDfqbhmu2JfA37Fvhf+7gFuuO9XfGbVsBIFYAFRIAmkgE6gA9gIbAHWAq3hey1ALNwi4WaF1+2E+wABUtg63HfDrQgUgByQB7LAeeA4cAoYD7cMMAmUwu9YMTS6ABRSiD3AeuBGYAcwEL7WhRR2AhGFU6Pz8pDCnkJEMQaMAOeAg8BL4f4IIoyGFUUjCiCJ1OKdwB3AtcAVSGG3MFNrGxUfiRZjwGngCPAdRBiDiGgahkYRQAK4CrgXeDcSyvuQ0P12KbfjlW15+TWQUB+E+5X9gXJfYXbfwb6McykihX8MEcN/AieR5qWu1FMACqnVdwEfAn4S6GXpN9pFwmsm3EaBN5H2eRCYCF+fQsJ1Mdy88O/9iv1y36C8H0XEV+5rtAHtiCivBjYjfY/28L0kS29+fGAIiQiPAXuBdD0LoR50Ab8C/BqwHYkAi+EiBTqMhNTvI4V9Hmlny520ygKuFg4QZ6YT2oM0WZuBm4FtiJDbubQoJoFXgIeAbyAdylWNDdwJPI8Ull5gC5BacRD4AvBB4Houv1moNjGgH4lm9wFfAg4jBRsscr1TwB7gNi6vqWloksAfI7V4oUIfB74HfAy4CaldK/mG2MAaYBfwSZTarywrh1ILCeE88HEkwqwqEsDnEaXPvmgfGVP/NfBOZEzfKJ3T5UTZ8XhXtLPz9mh7x6OW4wyi1HxRIQ88yCoSgQX8AfMX/mngT5COVa3G8HVDaw2JBL27dseSa9deH+3o/ILlOPNFxEngN1klFeF6pIZXXmAJeAJ4Bys7xL9tYl3drLvjzkiiv3+Xk0h+G6XKM5Hl7QRwXb3P83JRwBeZq+5PIT3opuaaj94PQNvmLT3Rjo6/U5ZVnkoubw/U+xwvlw7gh1zc0fscq6h9Ww4S/f107diRclpanpjVQXwBuYcrlgFkYqZ8QcNIk2CYRaStjURf3y5l26PM3K83kDWQqlHtefXycmwZxSrp2Cw3SlnhPxfdn8oVy6pQ64WVHqR3m6zxcRua5MAAyYGBdjeb/T0dBJ31Pp/lZANzRwAF4K+QqdKm5or3vR+Ats1beiOtqYfm6QSeQu7himU+AZSHgc8AN9Ckw8BEXz+9P/2uSHLt2lvseGIvSrnz3KdVK4DyiOAsMtd/DU0wEXT7E/8GQM/OnbGWgYEbIq2px5TjXFjg/qx6AVROBZ8G/hlZDOlglXUUu3ft5uoP3GOlrrpqTby3971OS8tTi0wFr2oBuMga/UIXPA68CHwWWRfoZgU2Eds//gn+Umv6br4l2rJhQ3+8t/eOSCr1ZSsaPawsO7fQ9TutrVo5Tk0FUO2atgH4n4qLOAf8IfCrwO1IwsV8aGT9/yRwFFkq/aGyrKG2LVsyG+/9hcLk4KA+/vhXqnz6S2Pg7vfQt3u3evPrTybc8YnOwPcH0Ppn3Ezm5sBzr9ZBsF4HQSt6/tRAKxplzU03se6un+PIl75I4cKF8lungVvCn1Wh1gI4A9yK1PT3Ar+LJHleambQC/9m2IpGB61I5ES0o+MV7boHAs8bjLS35wh0rnXTxtK6O37WvfOBTwUvPPY4+37jw8tyEbc++hV2//qHeO7Bz1hvPffdyOT58zHtea1uPp8C3WdFoztL4+M/EbjulWi9XgdBD1q36SBYdJhtx2K0bd3Glff9Emt2vxM3m2X//R9lanio/JFVK4CT4e9rgN3Ah4F3hb9fOuQrhVIqQKkpNBPKsfMEwYiKRCYIglE7Hk9HOzqH/cLUsdLExGAklfLtWNwFitr3SmgoZTNFL593ASJtbdFIsiWKAuU4UbSO+4VCpJTJWLGu7nV2LLqtmE73BMViB5bVoz2vA6W6tO+ngBRaJ7TW1kI1/KJTt21inZ107fgpBu66m87t24l2dACKyXNn2f8799dUAPXueV8A/gN4DtiEtPvl7J9eFsr+0RqttYVkCbfokg9wNZ5kg/mlEm42i9baBbzAdQOllK/BRWsf0DoIXMKkUC+btb18XkwjSjkKHK21o4NATQ0NOkqpiNaapRTwfFjRKLHOLtq3bqXv1tvouG47yf5+7EQCHQToIEBZ9Ul2rrcAykwhuX5HgK8hOXZbkdTwdwNXInmESZYSIUQgEJpBtO8vmpivtQZ/xvSj53t/iSjbxo7FibS10TIwQPeNO2nfto2W9VcQ7+nBjktrp4MA7dffaNQoAqhkElkEeQP4L+BvCRMvU1detWPNrt2fzp053V0YHsbNZvAnp/BLRQLPkxv6NmvpklEKZdtYjoMdi2EnkkTbUsR7+2jfuo3WTZuI9/YS7+4h2tGOnUhK7dZ6urY3Eo0ogEo0kvGbe/8PXjwJnNO+/0dBqdTtFwp4k5O42SxePo+by+JmMhTTaYqjoxRGRiiNp/GLRQLXRXsege9BICOswPNmxKIUlhPaBi2FZTsox8GKRLBjMWJdXcS6u2Xr7CSSaiOSSuG0tBJJteIkk9jxBFY0OhPKy1FI64ao6QvR6AKYpvImWtEoViwWdp4AVdGXDW944Pto30eHkUH7vtTAsNDl+8rRQmq1fJVCWRbKtmVzHKzyvm3PORYaNGH/oMELez5WjADmMNPOz6Vcox0H4nNHmKric+XvggUMfBXHaLTwvRysXAEslXlEohd5r9lodKOlocoYATQ5RgBNjhFAk2ME0OQYATQ5RgCNRB3yoGotgAQmG3gBFG4mi18s1vSo9fIFtNT4uA2NUgovn+PNJ79GaWK8pseux0zgRxBvwGeo47NxGgVlWRTTaY498hDn9+6p+fHrIYAY8gSQa4G/QJ6pV+3n+jQcyrIIXJf0K69w7NGHGT14oC4LSfVaC3CA9yD5gM8AXwZeQwwjqxdJZcMvFcmdOMnJbz7F0Pe/Ryldv0BY78WgtcBvAR8A9iGPTXsJecji6lipCQtdBwGldJrxo0c4++1nGXv5MMWxsbovSNVaAB6S/lX5cAgFrAN+GXgf8DqSSPot4EdIP8Et38x637BLEhY4QFAqUcpkyJ44weC+/yb98svkz53Fn5r/YaFOayt+oYD2atciNrIvIItkEb+GPFZu3zW/fX9k0y/e9007Fl+vLGtaENN5AbUSR1jASqmZcwgC/GIRN5ulODLC2OFDjB0+RO7MaQpDw3hTkwt+XT19AbWOAAHykMdnWdwXoJAncG4Pt3uA8WOPPJy5sH9/b8uGjbRv3Upq82ZinZ3YyRbseBw7EkE5dtlrPzd758dhTuaPFHLg+wSlEuWUtFJ6jMzx42ReP0b+rXMUhi9QGk/j5fOXTCCZzxcgjwioHfXqA4wD/wJ8l6X5AmygOyiVukcPHWT00EGUZWHH4zgtLWFuXopoexuRVBvRzk4SvX0kenuJtLVhRaJYkQhWNDKT+mU70/l7ki4mPXDt+QSuS+CWCFwXN5NhamiQqaEhShMTuJmM/Mxl8XJ5vMm8hO0lZgst5gtwJyZqXhD17gS+PV8Akp7lTU7iTU7CTMic5qK8PtsOEz3tmaRNy5qubVoHEBagDoLpDGNdmVd4Gc2L8QVcmuX1BcBMCrbr1vRCjC/g8jG+gBrSiAKoxPgCqkyjC2Aa4wuoDitGAHMwvoBlYeUKYKkYX8CimIygJscIoMkxAmhyjACaHCOAJscIoMkxAmgkjC+gmTG+gKbF+AKaGOMLML4A4wvA+ALqdkr1XgwyvgDjCzC+gDLGFzCD8QUIxheA8QVUFeMLwPgC6onxBRhfAGB8AXWjUQRQifEF1JBGFEAlxhdQZRpdANMYX0B1WDECmIPxBSwLK1cAS8X4AhbFZAQ1OUYATY4RQJNjBNDkGAE0OUYATY4RQCOxCn0BPuVsHsH4AhZEUcpk8IuFyhc9wv/hvFpUWwA5YLTi97IvIFnl464slMKbzHPi609SujgnYAjJjKoa1RZABvjBrNc+AvwZJhIAkrfgZjIc/ad/4Pye52a//QxQ1SyRagtAAw8DJyteiwGfBB4HbmCJ6/urDWVZ6CAg/X+vcvDBP+fU008TXJy78AaSGFtVarEW8CPgb4DPMRP6I8DPAzcCTwH/CBxntRtEwozhwHXJnjjBqae/weC+5ymOjs7+ZB5xTh2r9inVQgAaeAToA34f6QiC9HkHkMTQDwJ7EV/AYSTsrY6VmgpfgJvJkHn9GGeefZbRgy9RHBmZb0UzDzwI/Gst7kGtVgMLwGeRTs0DiBjKWMAVSGLovUga+F7g35EaMI6MJlaeL8B1cbNZ8mdOM7jveUYPHSR/5gxePr/QX7+F9I++CtTEJlzrkaeNJH7+KXAbi/sCJpC+w1FgD/DCdR/7RGzjPfd+y4rF1quKxIy6+gJQQJgyXirh5nIUx0ZJv/oqowcPkDt1kqnBIbzJ/GLnV0BE/2ngfykLvhaXUqsDzaILuJuFfQGz8YC0FY1OdL3j+g2tGzdG26+5ltaNm4h2dIQpWXGsiKR9T6dlLacvgDCR0/MIXHfGFzA+TvbkCSZeO8rkubNMDQ9TSqdxc7mlZAdNAQeAvwe+g0S7mlIvAZRZw9J8AXNP3LaxEwmcZJJIa+gLaGvHSaWIdXaR6O8j3ttHpLVVPAHhNq8vIPCnC2vGFyDeADeXY2pwkMLwMMXxNG42izsxjpvN4eZyM76ApaeCecAw4oX8KvAiF8+V1JR6C6BMgh/TF3DJC5vtC3Cci6PDIr4A7fkE/ixvwOWlgxWQQj+ADO1eAE6Fr9eVRhFAJUmWwRdQR3ykJz+GjOX3IAV/DBhEwn7D0IgCmH1+LcgU8jpktHAdMoG0HugEWpEIEkFGNdW+Jo2EcRcpzCziYD6DWNuPAGeRHv0I4nNo2KFLowtgoXOOIsJIISJoC392IkPMfkQwa5CoEUUEEkGGnSrcL1+/RgpUI4svbriVkAIcAs4jNXgYqd3jyEhlHBFBPvx8wxb2QjdzNWIhTYXDTGRwwtfK1zx7DqQ8C6mRMO4xU9PL+yuqcA0Gg8FgMBgMBoPBYDAYDAaDwWAwGAwGg8HQtPw/JIDauBJKz3EAAAAldEVYdGRhdGU6Y3JlYXRlADIwMTgtMDUtMzFUMTI6MzE6MDgrMDI6MDAS1+GOAAAAJXRFWHRkYXRlOm1vZGlmeQAyMDE4LTA1LTMxVDEyOjMxOjA4KzAyOjAwY4pZMgAAAEZ0RVh0c29mdHdhcmUASW1hZ2VNYWdpY2sgNi43LjgtOSAyMDE2LTA2LTE2IFExNiBodHRwOi8vd3d3LmltYWdlbWFnaWNrLm9yZ+a/NLYAAAAYdEVYdFRodW1iOjpEb2N1bWVudDo6UGFnZXMAMaf/uy8AAAAYdEVYdFRodW1iOjpJbWFnZTo6aGVpZ2h0ADUxMsDQUFEAAAAXdEVYdFRodW1iOjpJbWFnZTo6V2lkdGgANTEyHHwD3AAAABl0RVh0VGh1bWI6Ok1pbWV0eXBlAGltYWdlL3BuZz+yVk4AAAAXdEVYdFRodW1iOjpNVGltZQAxNTI3NzYyNjY42EAkwAAAABN0RVh0VGh1bWI6OlNpemUAMTQuNEtCQoaeH/gAAAA/dEVYdFRodW1iOjpVUkkAZmlsZTovLy4vdXBsb2Fkcy81Ni83aXFDT2hJLzE0OTQvZGF0YWJhc2VfMTAyODU3LnBuZzUaqUcAAAAASUVORK5CYII=;rounded=1;fontFamily=Verdana;fontSize=15;" vertex="1" parent="1tFxolOckkUxU7xt8ahI-1">
          <mxGeometry x="356" y="36.17" width="83.83" height="83.83" as="geometry" />
        </mxCell>
        <mxCell id="8ipYn8Lc4vEtKAmq_haU-0" value="user-created" style="whiteSpace=wrap;html=1;rounded=1;fontFamily=Verdana;fontSize=15;arcSize=0;fillColor=#dae8fc;strokeColor=#6c8ebf;fontStyle=1" vertex="1" parent="1tFxolOckkUxU7xt8ahI-1">
          <mxGeometry x="360" y="130" width="120" height="30" as="geometry" />
        </mxCell>
        <mxCell id="8ipYn8Lc4vEtKAmq_haU-1" value="{ id, image, name}" style="whiteSpace=wrap;html=1;rounded=1;fontFamily=Verdana;fontSize=15;arcSize=0;" vertex="1" parent="1tFxolOckkUxU7xt8ahI-1">
          <mxGeometry x="480" y="130" width="200" height="30" as="geometry" />
        </mxCell>
      </root>
    </mxGraphModel>
  </diagram>
</mxfile>
